<mxfile host="app.diagrams.net" modified="2022-05-12T13:41:07.763Z" agent="5.0 (X11)" etag="U0lIsq4wpgFukLnhbP33" version="17.5.0" type="github">
  <diagram id="kkIWBONtut1Cj8dUf7EF" name="Page-1">
    <mxGraphModel dx="1485" dy="813" grid="1" gridSize="10" guides="1" tooltips="1" connect="1" arrows="1" fold="1" page="1" pageScale="1" pageWidth="850" pageHeight="1100" math="0" shadow="0">
      <root>
        <mxCell id="0" />
        <mxCell id="1" parent="0" />
        <mxCell id="c_d547vfI3Nk0mtCro0D-2" value="create-react-app" style="rounded=1;whiteSpace=wrap;html=1;fontFamily=Comfortaa;fontSource=https%3A%2F%2Ffonts.googleapis.com%2Fcss%3Ffamily%3DComfortaa;strokeColor=none;fillColor=#EB5353;fontColor=#FFFFFF;fontSize=25;" vertex="1" parent="1">
          <mxGeometry x="310" y="340" width="260" height="50" as="geometry" />
        </mxCell>
        <mxCell id="c_d547vfI3Nk0mtCro0D-9" style="rounded=0;orthogonalLoop=1;jettySize=auto;html=1;entryX=0;entryY=0.5;entryDx=0;entryDy=0;fontFamily=Comfortaa;fontSource=https%3A%2F%2Ffonts.googleapis.com%2Fcss%3Ffamily%3DComfortaa;fontSize=25;fontColor=#FFFFFF;edgeStyle=orthogonalEdgeStyle;curved=1;strokeColor=#B3B3B3;" edge="1" parent="1" source="c_d547vfI3Nk0mtCro0D-4" target="c_d547vfI3Nk0mtCro0D-5">
          <mxGeometry relative="1" as="geometry" />
        </mxCell>
        <mxCell id="c_d547vfI3Nk0mtCro0D-10" style="edgeStyle=orthogonalEdgeStyle;curved=1;rounded=0;orthogonalLoop=1;jettySize=auto;html=1;entryX=0;entryY=0.5;entryDx=0;entryDy=0;fontFamily=Comfortaa;fontSource=https%3A%2F%2Ffonts.googleapis.com%2Fcss%3Ffamily%3DComfortaa;fontSize=25;fontColor=#FFFFFF;strokeColor=#B3B3B3;" edge="1" parent="1" source="c_d547vfI3Nk0mtCro0D-4" target="c_d547vfI3Nk0mtCro0D-6">
          <mxGeometry relative="1" as="geometry" />
        </mxCell>
        <mxCell id="c_d547vfI3Nk0mtCro0D-11" style="edgeStyle=orthogonalEdgeStyle;curved=1;rounded=0;orthogonalLoop=1;jettySize=auto;html=1;entryX=0;entryY=0.5;entryDx=0;entryDy=0;fontFamily=Comfortaa;fontSource=https%3A%2F%2Ffonts.googleapis.com%2Fcss%3Ffamily%3DComfortaa;fontSize=25;fontColor=#FFFFFF;strokeColor=#B3B3B3;" edge="1" parent="1" source="c_d547vfI3Nk0mtCro0D-4" target="c_d547vfI3Nk0mtCro0D-7">
          <mxGeometry relative="1" as="geometry" />
        </mxCell>
        <mxCell id="c_d547vfI3Nk0mtCro0D-13" style="edgeStyle=orthogonalEdgeStyle;curved=1;rounded=0;orthogonalLoop=1;jettySize=auto;html=1;entryX=0;entryY=0.5;entryDx=0;entryDy=0;fontFamily=Comfortaa;fontSource=https%3A%2F%2Ffonts.googleapis.com%2Fcss%3Ffamily%3DComfortaa;fontSize=25;fontColor=#FFFFFF;strokeColor=#B3B3B3;" edge="1" parent="1" source="c_d547vfI3Nk0mtCro0D-4" target="c_d547vfI3Nk0mtCro0D-12">
          <mxGeometry relative="1" as="geometry" />
        </mxCell>
        <mxCell id="c_d547vfI3Nk0mtCro0D-4" value="react-script" style="rounded=1;whiteSpace=wrap;html=1;fontFamily=Comfortaa;fontSource=https%3A%2F%2Ffonts.googleapis.com%2Fcss%3Ffamily%3DComfortaa;strokeColor=none;fillColor=#EB5353;fontColor=#FFFFFF;fontSize=25;" vertex="1" parent="1">
          <mxGeometry x="310" y="450" width="260" height="50" as="geometry" />
        </mxCell>
        <mxCell id="c_d547vfI3Nk0mtCro0D-5" value="npm start" style="rounded=1;whiteSpace=wrap;html=1;fontFamily=Comfortaa;fontSource=https%3A%2F%2Ffonts.googleapis.com%2Fcss%3Ffamily%3DComfortaa;strokeColor=none;fillColor=#EB5353;fontColor=#FFFFFF;fontSize=25;opacity=75;" vertex="1" parent="1">
          <mxGeometry x="660" y="380" width="260" height="50" as="geometry" />
        </mxCell>
        <mxCell id="c_d547vfI3Nk0mtCro0D-6" value="npm run build" style="rounded=1;whiteSpace=wrap;html=1;fontFamily=Comfortaa;fontSource=https%3A%2F%2Ffonts.googleapis.com%2Fcss%3Ffamily%3DComfortaa;strokeColor=none;fillColor=#EB5353;fontColor=#FFFFFF;fontSize=25;opacity=75;" vertex="1" parent="1">
          <mxGeometry x="660" y="460" width="260" height="50" as="geometry" />
        </mxCell>
        <mxCell id="c_d547vfI3Nk0mtCro0D-7" value="npm run test" style="rounded=1;whiteSpace=wrap;html=1;fontFamily=Comfortaa;fontSource=https%3A%2F%2Ffonts.googleapis.com%2Fcss%3Ffamily%3DComfortaa;strokeColor=none;fillColor=#EB5353;fontColor=#FFFFFF;fontSize=25;opacity=75;" vertex="1" parent="1">
          <mxGeometry x="660" y="540" width="260" height="50" as="geometry" />
        </mxCell>
        <mxCell id="c_d547vfI3Nk0mtCro0D-12" value="npm run eject" style="rounded=1;whiteSpace=wrap;html=1;fontFamily=Comfortaa;fontSource=https%3A%2F%2Ffonts.googleapis.com%2Fcss%3Ffamily%3DComfortaa;strokeColor=none;fillColor=#EB5353;fontColor=#FFFFFF;fontSize=25;opacity=75;" vertex="1" parent="1">
          <mxGeometry x="660" y="620" width="260" height="50" as="geometry" />
        </mxCell>
        <mxCell id="c_d547vfI3Nk0mtCro0D-18" style="edgeStyle=orthogonalEdgeStyle;curved=1;rounded=0;orthogonalLoop=1;jettySize=auto;html=1;entryX=0;entryY=0.5;entryDx=0;entryDy=0;fontFamily=Comfortaa;fontSource=https%3A%2F%2Ffonts.googleapis.com%2Fcss%3Ffamily%3DComfortaa;fontSize=25;fontColor=#FFFFFF;strokeColor=#B3B3B3;" edge="1" parent="1" source="c_d547vfI3Nk0mtCro0D-14" target="c_d547vfI3Nk0mtCro0D-15">
          <mxGeometry relative="1" as="geometry" />
        </mxCell>
        <mxCell id="c_d547vfI3Nk0mtCro0D-19" style="edgeStyle=orthogonalEdgeStyle;curved=1;rounded=0;orthogonalLoop=1;jettySize=auto;html=1;entryX=0;entryY=0.5;entryDx=0;entryDy=0;fontFamily=Comfortaa;fontSource=https%3A%2F%2Ffonts.googleapis.com%2Fcss%3Ffamily%3DComfortaa;fontSize=25;fontColor=#FFFFFF;strokeColor=#B3B3B3;" edge="1" parent="1" source="c_d547vfI3Nk0mtCro0D-14" target="c_d547vfI3Nk0mtCro0D-16">
          <mxGeometry relative="1" as="geometry" />
        </mxCell>
        <mxCell id="c_d547vfI3Nk0mtCro0D-20" style="edgeStyle=orthogonalEdgeStyle;curved=1;rounded=0;orthogonalLoop=1;jettySize=auto;html=1;entryX=0;entryY=0.5;entryDx=0;entryDy=0;fontFamily=Comfortaa;fontSource=https%3A%2F%2Ffonts.googleapis.com%2Fcss%3Ffamily%3DComfortaa;fontSize=25;fontColor=#FFFFFF;strokeColor=#B3B3B3;" edge="1" parent="1" source="c_d547vfI3Nk0mtCro0D-14" target="c_d547vfI3Nk0mtCro0D-17">
          <mxGeometry relative="1" as="geometry" />
        </mxCell>
        <mxCell id="c_d547vfI3Nk0mtCro0D-14" value="Class Component" style="rounded=1;whiteSpace=wrap;html=1;fontFamily=Comfortaa;fontSource=https%3A%2F%2Ffonts.googleapis.com%2Fcss%3Ffamily%3DComfortaa;strokeColor=none;fillColor=#FF8D29;fontColor=#FFFFFF;fontSize=25;" vertex="1" parent="1">
          <mxGeometry x="310" y="860" width="260" height="50" as="geometry" />
        </mxCell>
        <mxCell id="c_d547vfI3Nk0mtCro0D-15" value="extend Component" style="rounded=1;whiteSpace=wrap;html=1;fontFamily=Comfortaa;fontSource=https%3A%2F%2Ffonts.googleapis.com%2Fcss%3Ffamily%3DComfortaa;strokeColor=none;fillColor=#FF8D29;fontColor=#FFFFFF;fontSize=25;opacity=75;" vertex="1" parent="1">
          <mxGeometry x="650" y="790" width="260" height="50" as="geometry" />
        </mxCell>
        <mxCell id="c_d547vfI3Nk0mtCro0D-16" value="render" style="rounded=1;whiteSpace=wrap;html=1;fontFamily=Comfortaa;fontSource=https%3A%2F%2Ffonts.googleapis.com%2Fcss%3Ffamily%3DComfortaa;strokeColor=none;fillColor=#FF8D29;fontColor=#FFFFFF;fontSize=25;opacity=75;" vertex="1" parent="1">
          <mxGeometry x="650" y="880" width="260" height="50" as="geometry" />
        </mxCell>
        <mxCell id="c_d547vfI3Nk0mtCro0D-28" style="edgeStyle=orthogonalEdgeStyle;curved=1;rounded=0;orthogonalLoop=1;jettySize=auto;html=1;entryX=0;entryY=0.5;entryDx=0;entryDy=0;fontFamily=Comfortaa;fontSource=https%3A%2F%2Ffonts.googleapis.com%2Fcss%3Ffamily%3DComfortaa;fontSize=25;fontColor=#FFFFFF;strokeColor=#B3B3B3;" edge="1" parent="1" source="c_d547vfI3Nk0mtCro0D-17" target="c_d547vfI3Nk0mtCro0D-21">
          <mxGeometry relative="1" as="geometry" />
        </mxCell>
        <mxCell id="c_d547vfI3Nk0mtCro0D-29" style="edgeStyle=orthogonalEdgeStyle;curved=1;rounded=0;orthogonalLoop=1;jettySize=auto;html=1;entryX=0;entryY=0.5;entryDx=0;entryDy=0;fontFamily=Comfortaa;fontSource=https%3A%2F%2Ffonts.googleapis.com%2Fcss%3Ffamily%3DComfortaa;fontSize=25;fontColor=#FFFFFF;strokeColor=#B3B3B3;" edge="1" parent="1" source="c_d547vfI3Nk0mtCro0D-17" target="c_d547vfI3Nk0mtCro0D-22">
          <mxGeometry relative="1" as="geometry" />
        </mxCell>
        <mxCell id="c_d547vfI3Nk0mtCro0D-17" value="Local State" style="rounded=1;whiteSpace=wrap;html=1;fontFamily=Comfortaa;fontSource=https%3A%2F%2Ffonts.googleapis.com%2Fcss%3Ffamily%3DComfortaa;strokeColor=none;fillColor=#FF8D29;fontColor=#FFFFFF;fontSize=25;opacity=75;" vertex="1" parent="1">
          <mxGeometry x="650" y="970" width="260" height="50" as="geometry" />
        </mxCell>
        <mxCell id="c_d547vfI3Nk0mtCro0D-25" style="edgeStyle=orthogonalEdgeStyle;curved=1;rounded=0;orthogonalLoop=1;jettySize=auto;html=1;entryX=0;entryY=0.5;entryDx=0;entryDy=0;fontFamily=Comfortaa;fontSource=https%3A%2F%2Ffonts.googleapis.com%2Fcss%3Ffamily%3DComfortaa;fontSize=25;fontColor=#FFFFFF;strokeColor=#B3B3B3;" edge="1" parent="1" source="c_d547vfI3Nk0mtCro0D-21" target="c_d547vfI3Nk0mtCro0D-23">
          <mxGeometry relative="1" as="geometry" />
        </mxCell>
        <mxCell id="c_d547vfI3Nk0mtCro0D-26" style="edgeStyle=orthogonalEdgeStyle;curved=1;rounded=0;orthogonalLoop=1;jettySize=auto;html=1;fontFamily=Comfortaa;fontSource=https%3A%2F%2Ffonts.googleapis.com%2Fcss%3Ffamily%3DComfortaa;fontSize=25;fontColor=#FFFFFF;strokeColor=#B3B3B3;entryX=0;entryY=0.5;entryDx=0;entryDy=0;" edge="1" parent="1" source="c_d547vfI3Nk0mtCro0D-21" target="c_d547vfI3Nk0mtCro0D-24">
          <mxGeometry relative="1" as="geometry" />
        </mxCell>
        <mxCell id="c_d547vfI3Nk0mtCro0D-21" value="setState" style="rounded=1;whiteSpace=wrap;html=1;fontFamily=Comfortaa;fontSource=https%3A%2F%2Ffonts.googleapis.com%2Fcss%3Ffamily%3DComfortaa;strokeColor=none;fillColor=#FF8D29;fontColor=#FFFFFF;fontSize=25;opacity=50;" vertex="1" parent="1">
          <mxGeometry x="970" y="920" width="260" height="50" as="geometry" />
        </mxCell>
        <mxCell id="c_d547vfI3Nk0mtCro0D-22" value="Shallow Merge" style="rounded=1;whiteSpace=wrap;html=1;fontFamily=Comfortaa;fontSource=https%3A%2F%2Ffonts.googleapis.com%2Fcss%3Ffamily%3DComfortaa;strokeColor=none;fillColor=#FF8D29;fontColor=#FFFFFF;fontSize=25;opacity=50;" vertex="1" parent="1">
          <mxGeometry x="950" y="1110" width="260" height="50" as="geometry" />
        </mxCell>
        <mxCell id="c_d547vfI3Nk0mtCro0D-23" value="setState is Async" style="rounded=1;whiteSpace=wrap;html=1;fontFamily=Comfortaa;fontSource=https%3A%2F%2Ffonts.googleapis.com%2Fcss%3Ffamily%3DComfortaa;strokeColor=none;fillColor=#FF8D29;fontColor=#000000;fontSize=25;opacity=30;" vertex="1" parent="1">
          <mxGeometry x="1340" y="820" width="260" height="50" as="geometry" />
        </mxCell>
        <mxCell id="c_d547vfI3Nk0mtCro0D-24" value="Second CallBack" style="rounded=1;whiteSpace=wrap;html=1;fontFamily=Comfortaa;fontSource=https%3A%2F%2Ffonts.googleapis.com%2Fcss%3Ffamily%3DComfortaa;strokeColor=none;fillColor=#FF8D29;fontColor=#000000;fontSize=25;opacity=30;" vertex="1" parent="1">
          <mxGeometry x="1350" y="1010" width="260" height="50" as="geometry" />
        </mxCell>
        <mxCell id="c_d547vfI3Nk0mtCro0D-33" style="edgeStyle=orthogonalEdgeStyle;curved=1;rounded=0;orthogonalLoop=1;jettySize=auto;html=1;fontFamily=Comfortaa;fontSource=https%3A%2F%2Ffonts.googleapis.com%2Fcss%3Ffamily%3DComfortaa;fontSize=25;fontColor=#000000;strokeColor=#B3B3B3;entryX=0;entryY=0.5;entryDx=0;entryDy=0;" edge="1" parent="1" source="c_d547vfI3Nk0mtCro0D-30" target="c_d547vfI3Nk0mtCro0D-31">
          <mxGeometry relative="1" as="geometry">
            <mxPoint x="790" y="1330" as="targetPoint" />
          </mxGeometry>
        </mxCell>
        <mxCell id="c_d547vfI3Nk0mtCro0D-34" style="edgeStyle=orthogonalEdgeStyle;curved=1;rounded=0;orthogonalLoop=1;jettySize=auto;html=1;entryX=0;entryY=0.5;entryDx=0;entryDy=0;fontFamily=Comfortaa;fontSource=https%3A%2F%2Ffonts.googleapis.com%2Fcss%3Ffamily%3DComfortaa;fontSize=25;fontColor=#000000;strokeColor=#B3B3B3;" edge="1" parent="1" source="c_d547vfI3Nk0mtCro0D-30" target="c_d547vfI3Nk0mtCro0D-32">
          <mxGeometry relative="1" as="geometry" />
        </mxCell>
        <mxCell id="c_d547vfI3Nk0mtCro0D-30" value="Render List" style="rounded=1;whiteSpace=wrap;html=1;fontFamily=Comfortaa;fontSource=https%3A%2F%2Ffonts.googleapis.com%2Fcss%3Ffamily%3DComfortaa;strokeColor=none;fillColor=#36AE7C;fontColor=#FFFFFF;fontSize=25;" vertex="1" parent="1">
          <mxGeometry x="460" y="1370" width="260" height="50" as="geometry" />
        </mxCell>
        <mxCell id="c_d547vfI3Nk0mtCro0D-31" value="map" style="rounded=1;whiteSpace=wrap;html=1;fontFamily=Comfortaa;fontSource=https%3A%2F%2Ffonts.googleapis.com%2Fcss%3Ffamily%3DComfortaa;strokeColor=none;fillColor=#36AE7C;fontColor=#FFFFFF;fontSize=25;opacity=75;" vertex="1" parent="1">
          <mxGeometry x="800" y="1300" width="260" height="50" as="geometry" />
        </mxCell>
        <mxCell id="c_d547vfI3Nk0mtCro0D-32" value="key" style="rounded=1;whiteSpace=wrap;html=1;fontFamily=Comfortaa;fontSource=https%3A%2F%2Ffonts.googleapis.com%2Fcss%3Ffamily%3DComfortaa;strokeColor=none;fillColor=#36AE7C;fontColor=#FFFFFF;fontSize=25;opacity=75;" vertex="1" parent="1">
          <mxGeometry x="800" y="1410" width="260" height="50" as="geometry" />
        </mxCell>
      </root>
    </mxGraphModel>
  </diagram>
</mxfile>
